<?xml version="1.0" encoding="UTF-8" standalone="no"?>
<!-- Created with Inkscape (http://www.inkscape.org/) -->

<svg
   xmlns:dc="http://purl.org/dc/elements/1.1/"
   xmlns:cc="http://creativecommons.org/ns#"
   xmlns:rdf="http://www.w3.org/1999/02/22-rdf-syntax-ns#"
   xmlns:svg="http://www.w3.org/2000/svg"
   xmlns="http://www.w3.org/2000/svg"
   version="1.1"
   width="892.91339"
   height="414.92126"
   id="svg7802">
  <defs
     id="defs7804">
    <clipPath
       id="clipPath7218">
      <path
         d="m 66.792,786.319 88.892,0 0,-41.525 -88.892,0 0,41.525 z"
         id="path7220" />
    </clipPath>
  </defs>
  <metadata
     id="metadata7807">
    <rdf:RDF>
      <cc:Work
         rdf:about="">
        <dc:format>image/svg+xml</dc:format>
        <dc:type
           rdf:resource="http://purl.org/dc/dcmitype/StillImage" />
        <dc:title></dc:title>
      </cc:Work>
    </rdf:RDF>
  </metadata>
  <g
     transform="translate(84.77993,-147.4666)"
     id="layer1">
    <g
       transform="matrix(7.8798366,0,0,7.8798366,-4073.5456,-4132.6794)"
       id="g7879">
      <path
         d="m 610.45995,544.57723 c 0.6275,-0.2575 1.26875,-0.515 1.91375,-0.77 -0.26125,-0.16875 -0.5525,-0.29125 -0.88625,-0.29125 l -32.60125,0 c -0.915,0 -1.6575,0.7425 -1.6575,1.65875 l 0,17.3775 c 5.7375,-4.965 19.42,-12.28625 33.23125,-17.975"
         id="path7204"
         style="fill:#ef3d42;fill-opacity:1;fill-rule:nonzero;stroke:none" />
      <path
         d="m 610.25495,545.36098 c -8.92875,3.67625 -15.89125,8.445 -15.99,10.5025 -0.1625,3.38 12.7225,0.53625 18.8825,1.11375 l 0,-11.8025 c 0,-0.3125 -0.11125,-0.59 -0.2625,-0.84125 -0.7725,0.2825 -1.64125,0.62 -2.63,1.0275"
         id="path7206"
         style="fill:#ef3d42;fill-opacity:1;fill-rule:nonzero;stroke:none" />
      <path
         d="m 595.4737,569.21098 c 0.0113,-2.89125 -12.5075,-0.59875 -18.245,-1.2525 l 0,9.585 c 0,0.9175 0.7425,1.65875 1.6575,1.65875 l 2.36625,0 c 8.2525,-3.72625 14.12375,-7.98375 14.22125,-9.99125"
         id="path7208"
         style="fill:#ef3d42;fill-opacity:1;fill-rule:nonzero;stroke:none" />
      <path
         d="m 583.11995,579.20223 28.3675,0 c 0.9175,0 1.66,-0.74125 1.66,-1.65875 l 0,-14.80875 c -5.805,4.68125 -18.53875,11.42375 -30.0275,16.4675"
         id="path7210"
         style="fill:#ef3d42;fill-opacity:1;fill-rule:nonzero;stroke:none" />
      <path
         d="m 510.8837,588.97348 c -0.65125,-0.61875 -1.28,-0.8 -1.7975,-0.8 -0.7075,0 -1.21375,0.37125 -1.21375,0.91125 0,1.4725 3.315,1.45 3.315,3.88875 0,1.20375 -0.91,2.07875 -2.14625,2.07875 -0.8325,0 -1.50625,-0.225 -2.14625,-0.7075 l 0,-1.39375 c 0.56125,0.71875 1.27,1.11375 2.0225,1.11375 0.85375,0 1.2475,-0.54 1.2475,-0.9675 0,-1.58375 -3.315,-1.76375 -3.315,-3.86625 0,-1.24625 0.92125,-2.04625 2.32625,-2.04625 0.58375,0 1.16875,0.18 1.7075,0.54"
         id="path7212"
         style="fill:#231f20;fill-opacity:1;fill-rule:nonzero;stroke:none" />
      <g
         transform="matrix(1.25,0,0,-1.25,423.1587,1526.281)"
         id="g7214">
        <g
           clip-path="url(#clipPath7218)"
           id="g7216">
          <path
             d="m 70.18,749.846 c -0.521,0.495 -1.024,0.64 -1.438,0.64 -0.566,0 -0.971,-0.297 -0.971,-0.729 0,-1.178 2.652,-1.16 2.652,-3.111 0,-0.963 -0.728,-1.663 -1.717,-1.663 -0.666,0 -1.205,0.18 -1.717,0.566 l 0,1.115 c 0.449,-0.575 1.016,-0.891 1.618,-0.891 0.683,0 0.998,0.432 0.998,0.774 0,1.267 -2.652,1.411 -2.652,3.093 0,0.997 0.737,1.637 1.861,1.637 0.467,0 0.935,-0.144 1.366,-0.432 l 0,-0.999 z"
             id="path7222"
             style="fill:none;stroke:#231f20;stroke-width:0.322;stroke-linecap:butt;stroke-linejoin:miter;stroke-miterlimit:4;stroke-opacity:1;stroke-dasharray:none" />
        </g>
      </g>
      <path
         d="m 516.5112,591.86848 2.5175,0 -1.3,-2.94125 -1.2175,2.94125 z m -0.39625,0.98875 -0.925,2.095 -1.12375,0 3.2925,-7.71 0.77625,0 3.4275,7.71 -1.125,0 -0.91875,-2.095"
         id="path7224"
         style="fill:#231f20;fill-opacity:1;fill-rule:nonzero;stroke:none" />
      <path
         d="m 516.5112,591.86848 2.5175,0 -1.3,-2.94125 -1.2175,2.94125 z m -0.39625,0.98875 -0.925,2.095 -1.12375,0 3.2925,-7.71 0.77625,0 3.4275,7.71 -1.125,0 -0.91875,-2.095 -3.40375,0 z"
         id="path7226"
         style="fill:none;stroke:#231f20;stroke-width:0.4025;stroke-linecap:butt;stroke-linejoin:miter;stroke-miterlimit:4;stroke-opacity:1;stroke-dasharray:none" />
      <path
         d="m 532.10745,594.95223 -0.94375,0 -5.125,-5.90125 0,5.90125 -1.03375,0 0,-7.66625 0.8775,0 5.19125,5.935 0,-5.935 1.03375,0"
         id="path7228"
         style="fill:#231f20;fill-opacity:1;fill-rule:nonzero;stroke:none" />
      <path
         d="m 532.10745,594.95223 -0.94375,0 -5.125,-5.90125 0,5.90125 -1.03375,0 0,-7.66625 0.8775,0 5.19125,5.935 0,-5.935 1.03375,0 0,7.66625 z"
         id="path7230"
         style="fill:none;stroke:#231f20;stroke-width:0.4025;stroke-linecap:butt;stroke-linejoin:miter;stroke-miterlimit:4;stroke-opacity:1;stroke-dasharray:none" />
      <path
         d="m 543.6837,594.94348 -1.10125,0 0,-5.9675 -0.0225,0 -2.36,2.9675 -0.18,0 -2.36125,-2.9675 -0.0213,0 0,5.9675 -1.10125,0 0,-7.66375 1.03375,0 2.54,3.14625 2.55125,-3.14625 1.0225,0"
         id="path7232"
         style="fill:#231f20;fill-opacity:1;fill-rule:nonzero;stroke:none" />
      <path
         d="m 543.6837,594.94348 -1.10125,0 0,-5.9675 -0.0225,0 -2.36,2.9675 -0.18,0 -2.36125,-2.9675 -0.0213,0 0,5.9675 -1.10125,0 0,-7.66375 1.03375,0 2.54,3.14625 2.55125,-3.14625 1.0225,0 0,7.66375 z"
         id="path7234"
         style="fill:none;stroke:#231f20;stroke-width:0.4025;stroke-linecap:butt;stroke-linejoin:miter;stroke-miterlimit:4;stroke-opacity:1;stroke-dasharray:none" />
      <path
         d="m 548.64995,594.94348 0,-7.66375"
         id="path7236"
         style="fill:none;stroke:#231f20;stroke-width:1.10124993;stroke-linecap:butt;stroke-linejoin:miter;stroke-miterlimit:4;stroke-opacity:1;stroke-dasharray:none" />
      <path
         d="m 549.19995,594.94348 -1.10113,0 0,-7.66425 1.10113,0 0,7.66425 z"
         id="path7238"
         style="fill:none;stroke:#231f20;stroke-width:0.4025;stroke-linecap:butt;stroke-linejoin:miter;stroke-miterlimit:4;stroke-opacity:1;stroke-dasharray:none" />
      <path
         d="m 560.70245,594.93348 -0.945,0 -5.12375,-5.9 0,5.9 -1.03375,0 0,-7.665 0.87625,0 5.1925,5.93375 0,-5.93375 1.03375,0"
         id="path7240"
         style="fill:#231f20;fill-opacity:1;fill-rule:nonzero;stroke:none" />
      <path
         d="m 560.70245,594.93348 -0.945,0 -5.12375,-5.9 0,5.9 -1.03375,0 0,-7.665 0.87625,0 5.1925,5.93375 0,-5.93375 1.03375,0 0,7.665 z"
         id="path7242"
         style="fill:none;stroke:#231f20;stroke-width:0.4025;stroke-linecap:butt;stroke-linejoin:miter;stroke-miterlimit:4;stroke-opacity:1;stroke-dasharray:none" />
      <path
         d="m 566.57745,591.92598 2.5175,0 -1.2975,-2.94125 -1.22,2.94125 z m -0.39625,0.90625 -0.925,2.09375 -1.1225,0 3.29125,-7.70875 0.775,0 3.42875,7.70875 -1.12375,0 -0.92,-2.09375"
         id="path7244"
         style="fill:#231f20;fill-opacity:1;fill-rule:nonzero;stroke:none" />
      <path
         d="m 566.57745,591.92598 2.5175,0 -1.2975,-2.94125 -1.22,2.94125 z m -0.39625,0.90625 -0.925,2.09375 -1.1225,0 3.29125,-7.70875 0.775,0 3.42875,7.70875 -1.12375,0 -0.92,-2.09375 -3.40375,0 z"
         id="path7246"
         style="fill:none;stroke:#231f20;stroke-width:0.4025;stroke-linecap:butt;stroke-linejoin:miter;stroke-miterlimit:4;stroke-opacity:1;stroke-dasharray:none" />
      <path
         d="m 585.83245,588.99848 c -0.6525,-0.6175 -1.2825,-0.7975 -1.79875,-0.7975 -0.70875,0 -1.2125,0.37 -1.2125,0.91 0,1.47125 3.31375,1.45 3.31375,3.88875 0,1.2025 -0.91,2.08 -2.14625,2.08 -0.83125,0 -1.50625,-0.225 -2.1475,-0.7075 l 0,-1.395 c 0.5625,0.72 1.27,1.1125 2.02375,1.1125 0.855,0 1.2475,-0.54 1.2475,-0.96625 0,-1.58375 -3.31375,-1.765 -3.31375,-3.86625 0,-1.24875 0.92,-2.045 2.325,-2.045 0.58375,0 1.16875,0.17875 1.70875,0.53875"
         id="path7248"
         style="fill:#231f20;fill-opacity:1;fill-rule:nonzero;stroke:none" />
      <path
         d="m 585.83245,588.99848 c -0.6525,-0.6175 -1.2825,-0.7975 -1.79875,-0.7975 -0.70875,0 -1.2125,0.37 -1.2125,0.91 0,1.47125 3.31375,1.45 3.31375,3.88875 0,1.2025 -0.91,2.08 -2.14625,2.08 -0.83125,0 -1.50625,-0.225 -2.1475,-0.7075 l 0,-1.395 c 0.5625,0.72 1.27,1.1125 2.02375,1.1125 0.855,0 1.2475,-0.54 1.2475,-0.96625 0,-1.58375 -3.31375,-1.765 -3.31375,-3.86625 0,-1.24875 0.92,-2.045 2.325,-2.045 0.58375,0 1.16875,0.17875 1.70875,0.53875 l 0,1.2475 z"
         id="path7250"
         style="fill:none;stroke:#231f20;stroke-width:0.4025;stroke-linecap:butt;stroke-linejoin:miter;stroke-miterlimit:4;stroke-opacity:1;stroke-dasharray:none" />
      <path
         d="m 600.80495,594.94348 0,-7.665"
         id="path7252"
         style="fill:none;stroke:#231f20;stroke-width:1.10124993;stroke-linecap:butt;stroke-linejoin:miter;stroke-miterlimit:4;stroke-opacity:1;stroke-dasharray:none" />
      <path
         d="m 601.35495,594.94348 -1.10125,0 0,-7.66525 1.10125,0 0,7.66525 z"
         id="path7254"
         style="fill:none;stroke:#231f20;stroke-width:0.4025;stroke-linecap:butt;stroke-linejoin:miter;stroke-miterlimit:4;stroke-opacity:1;stroke-dasharray:none" />
      <path
         d="m 596.1362,589.06723 c -0.9375,-0.54625 -1.7425,-0.7925 -2.625,-0.7925 -1.74125,0 -3.03625,1.24 -3.03625,2.91625 0,1.7075 1.25,2.89125 3.08125,2.89125 0.86,0 1.79875,-0.30125 2.6575,-0.85875 l 0,1.19375 c -0.7475,0.3925 -1.56375,0.67125 -2.75875,0.67125 -2.8575,0 -4.11,-2.20125 -4.11,-3.7975 0,-2.32375 1.75375,-4.02125 4.17875,-4.02125 0.78,0 1.57375,0.18875 2.6125,0.625"
         id="path7256"
         style="fill:#231f20;fill-opacity:1;fill-rule:nonzero;stroke:none" />
      <path
         d="m 596.1362,589.06723 c -0.9375,-0.54625 -1.7425,-0.7925 -2.625,-0.7925 -1.74125,0 -3.03625,1.24 -3.03625,2.91625 0,1.7075 1.25,2.89125 3.08125,2.89125 0.86,0 1.79875,-0.30125 2.6575,-0.85875 l 0,1.19375 c -0.7475,0.3925 -1.56375,0.67125 -2.75875,0.67125 -2.8575,0 -4.11,-2.20125 -4.11,-3.7975 0,-2.32375 1.75375,-4.02125 4.17875,-4.02125 0.78,0 1.57375,0.18875 2.6125,0.625 l 0,1.1725 z"
         id="path7258"
         style="fill:none;stroke:#231f20;stroke-width:0.4025;stroke-linecap:butt;stroke-linejoin:miter;stroke-miterlimit:4;stroke-opacity:1;stroke-dasharray:none" />
      <path
         d="m 574.7537,591.06348 2.7575,0"
         id="path7260"
         style="fill:none;stroke:#231f20;stroke-width:0.84749997;stroke-linecap:butt;stroke-linejoin:miter;stroke-miterlimit:4;stroke-opacity:1;stroke-dasharray:none" />
      <text
         x="603.7962"
         y="590.90424"
         id="text7262"
         style="font-size:15px">
        <tspan
           x="603.7962"
           y="590.90424"
           id="tspan7264"
           style="font-size:5.70012522px;font-variant:normal;font-weight:normal;writing-mode:lr-tb;fill:#231f20;fill-opacity:1;fill-rule:nonzero;stroke:none;font-family:Myriad;-inkscape-font-specification:Myriad-Roman">®</tspan>
        <tspan
           x="614.8573"
           y="548.15332"
           id="tspan7266"
           style="font-size:5.70012522px;font-variant:normal;font-weight:normal;writing-mode:lr-tb;fill:#231f20;fill-opacity:1;fill-rule:nonzero;stroke:none;font-family:Myriad;-inkscape-font-specification:Myriad-Roman">®</tspan>
      </text>
    </g>
  </g>
</svg>
