<?xml version="1.0" encoding="UTF-8" standalone="no"?>
<!-- Created with Inkscape (http://www.inkscape.org/) -->

<svg
   xmlns:dc="http://purl.org/dc/elements/1.1/"
   xmlns:cc="http://creativecommons.org/ns#"
   xmlns:rdf="http://www.w3.org/1999/02/22-rdf-syntax-ns#"
   xmlns:svg="http://www.w3.org/2000/svg"
   xmlns="http://www.w3.org/2000/svg"
   xmlns:sodipodi="http://sodipodi.sourceforge.net/DTD/sodipodi-0.dtd"
   xmlns:inkscape="http://www.inkscape.org/namespaces/inkscape"
   width="172.02122"
   height="80"
   viewBox="0 0 45.51395 13.079232"
   version="1.1"
   id="svg5362"
   inkscape:version="0.92.0 r15299"
   sodipodi:docname="kla tencor.svg">
  <defs
     id="defs5356" />
  <sodipodi:namedview
     id="base"
     pagecolor="#ffffff"
     bordercolor="#666666"
     borderopacity="1.0"
     inkscape:pageopacity="0.0"
     inkscape:pageshadow="2"
     inkscape:zoom="4.255469"
     inkscape:cx="94.231681"
     inkscape:cy="22.818652"
     inkscape:document-units="mm"
     inkscape:current-layer="layer1"
     showgrid="false"
     fit-margin-top="0"
     fit-margin-left="0"
     fit-margin-right="0"
     fit-margin-bottom="0"
     units="px"
     inkscape:window-width="1280"
     inkscape:window-height="744"
     inkscape:window-x="-4"
     inkscape:window-y="-4"
     inkscape:window-maximized="1" />
  <metadata
     id="metadata5359">
    <rdf:RDF>
      <cc:Work
         rdf:about="">
        <dc:format>image/svg+xml</dc:format>
        <dc:type
           rdf:resource="http://purl.org/dc/dcmitype/StillImage" />
        <dc:title></dc:title>
      </cc:Work>
    </rdf:RDF>
  </metadata>
  <g
     inkscape:label="Layer 1"
     inkscape:groupmode="layer"
     id="layer1"
     transform="translate(-90.728583,-252.16059)">
    <path
       inkscape:connector-curvature="0"
       id="path3916"
       style="fill:#20145a;fill-opacity:1;fill-rule:nonzero;stroke:none;stroke-width:0.35277778"
       d="m 97.254622,255.24034 -2.85503,2.8575 2.112786,3.17853 h -2.035881 l -1.615722,-2.61444 h -0.01341 l -0.411691,2.61444 h -1.5748 l 0.959555,-6.03603 h 1.565275 l -0.398286,2.48602 h 0.02752 l 2.293761,-2.48602 m 18.851391,0 -0.21731,1.32009 h -1.29399 l -0.76024,4.71594 h -1.56104 l 0.74224,-4.71594 h -1.37124 c 0.13617,-0.67557 0.2032,-1.27776 0.2032,-1.80763 0,-1.08479 -0.35701,-1.62701 -1.07174,-1.62701 -0.53905,0 -1.17228,0.32667 -1.89195,0.98072 -0.7239,0.65335 -1.38889,1.49225 -2.00484,2.51778 l 1.02306,4.65208 h -1.67852 c -0.0864,0.65722 -0.12664,1.10172 -0.12664,1.33209 0,1.10243 0.35736,1.65347 1.07632,1.65347 0.84667,0 1.84609,-0.73978 2.99544,-2.21686 0.43003,-0.54716 0.883,-1.23402 1.36278,-2.0634 h 0.18944 c -0.41169,0.76906 -0.85972,1.49049 -1.34338,2.16606 -0.67416,0.93133 -1.38006,1.65664 -2.11808,2.1784 -0.73307,0.52176 -1.39841,0.7814 -1.99566,0.7814 -0.57467,0 -0.99519,-0.26917 -1.27106,-0.80715 -0.21237,-0.4191 -0.32138,-0.94827 -0.32138,-1.58927 0,-0.78528 0.15381,-1.69509 0.46143,-2.72944 h 0.84632 l -0.54751,-2.88325 h -0.0272 l -2.15441,4.17795 h -4.497567 l 0.950737,-6.03603 h 1.574448 l -0.742246,4.70323 h 1.769538 l 2.56046,-4.70323 h 1.71556 l 0.24377,1.12748 c 0.79692,-1.28129 1.62524,-2.28071 2.48884,-2.99861 0.86008,-0.71755 1.66053,-1.07633 2.39395,-1.07633 0.55633,0 0.97297,0.27764 1.24425,0.83291 0.21308,0.42651 0.32173,0.94827 0.32173,1.56351 0,0.16298 -0.01,0.34572 -0.0272,0.55104 z m 3.37079,4.04918 -0.0272,0.15417 h -3.06317 c -0.009,0.0769 -0.0134,0.14993 -0.0134,0.21766 0,0.46108 0.26247,0.69215 0.78246,0.69215 0.31715,0 0.56621,-0.12418 0.75565,-0.37183 h 1.39806 c -0.18062,0.46179 -0.49706,0.81668 -0.94968,1.06398 -0.40252,0.23072 -0.85513,0.34572 -1.35749,0.34572 -0.62477,0 -1.12677,-0.15381 -1.50706,-0.46143 -0.37995,-0.30727 -0.56974,-0.74295 -0.56974,-1.30704 0,-0.13723 0.0134,-0.27834 0.0402,-0.42298 0.10901,-0.67522 0.40322,-1.20827 0.883,-1.60161 0.47907,-0.39335 1.05798,-0.5895 1.74166,-0.5895 0.6149,0 1.09115,0.15629 1.42487,0.46744 0.33056,0.3115 0.49813,0.74577 0.49813,1.30104 0,0.16263 -0.0134,0.33302 -0.0363,0.51223 m -1.24425,-0.69215 c -0.009,-0.19579 -0.0815,-0.35207 -0.21237,-0.46743 -0.13123,-0.115 -0.29845,-0.17286 -0.50729,-0.17286 -0.49319,0 -0.8188,0.21414 -0.97191,0.64029 z m 6.34471,0.14147 -0.4124,2.53753 h -1.46191 l 0.32174,-1.99955 c 0.0406,-0.26493 0.0631,-0.43921 0.0631,-0.52528 0,-0.37571 -0.18062,-0.56409 -0.55139,-0.56409 -0.50306,0 -0.8061,0.32102 -0.90981,0.96131 l -0.3302,2.12761 h -1.46156 l 0.65158,-4.1141 h 1.44745 l -0.0766,0.53869 h 0.0134 c 0.36689,-0.44344 0.84173,-0.66639 1.42099,-0.66639 0.8823,0 1.3208,0.41874 1.3208,1.25553 0,0.13723 -0.013,0.28575 -0.0353,0.44874 m 4.14902,-1.48696 -0.19015,1.23049 c -0.23107,-0.19615 -0.46566,-0.29492 -0.70626,-0.29492 -0.31679,0 -0.59267,0.11923 -0.82832,0.35912 -0.2346,0.23954 -0.35243,0.51612 -0.35243,0.83291 0,0.2473 0.0815,0.44591 0.24413,0.59584 0.16263,0.14993 0.3757,0.22402 0.64276,0.22402 0.28081,0 0.53798,-0.0931 0.76905,-0.28152 l -0.19473,1.24284 c -0.32985,0.15381 -0.68686,0.23071 -1.06257,0.23071 -0.55703,0 -1.01388,-0.16898 -1.37583,-0.50623 -0.3623,-0.33691 -0.54822,-0.77118 -0.54822,-1.30069 0,-0.11148 0.01,-0.22684 0.0279,-0.34573 0.10372,-0.64981 0.40711,-1.18321 0.90946,-1.60196 0.50695,-0.41875 1.08585,-0.62795 1.74202,-0.62795 0.35278,0 0.66111,0.0808 0.92322,0.24307 m 5.24404,1.94804 c -0.10372,0.67557 -0.4385,1.21391 -0.99977,1.61466 -0.52493,0.38453 -1.13101,0.57679 -1.81963,0.57679 -0.62442,0 -1.13559,-0.15734 -1.52435,-0.47413 -0.42051,-0.33302 -0.629,-0.78176 -0.629,-1.34549 0,-0.1196 0.01,-0.24342 0.0226,-0.37183 0.11325,-0.67522 0.44838,-1.21709 1.00013,-1.62737 0.52105,-0.37535 1.13065,-0.56374 1.81927,-0.56374 0.62442,0 1.14053,0.16228 1.54764,0.48649 0.40181,0.32455 0.60607,0.7694 0.60607,1.33314 0,0.11924 -0.009,0.24377 -0.0229,0.37148 m -1.5247,-0.16687 c 0,-0.50341 -0.26706,-0.75565 -0.79658,-0.75565 -0.30762,0 -0.57009,0.10513 -0.78281,0.31398 -0.21237,0.20884 -0.32103,0.46778 -0.32103,0.77505 0,0.50377 0.27164,0.756 0.80998,0.756 0.31679,0 0.57467,-0.10477 0.78317,-0.31362 0.20284,-0.20884 0.30727,-0.46743 0.30727,-0.77576 m 5.61057,-1.92158 -0.23036,1.397 c -0.13511,-0.0864 -0.33479,-0.12841 -0.58808,-0.12841 -0.66922,0 -1.06821,0.41381 -1.20403,1.24284 l -0.27129,1.65347 h -1.46156 l 0.65582,-4.1141 h 1.46191 l -0.10442,0.67945 h 0.0138 c 0.34784,-0.48718 0.83256,-0.73025 1.44816,-0.73025 z" />
  </g>
</svg>
